<svg xmlns="http://www.w3.org/2000/svg" width="1200" height="630" viewBox="0 0 1200 630">
  <rect width="1200" height="630" fill="#0F1F3D"/>
  <rect width="1200" height="630" fill="url(#grid)" opacity="0.15"/>
  <defs>
    <pattern id="grid" width="48" height="48" patternUnits="userSpaceOnUse">
      <path d="M 48 0 L 0 0 0 48" fill="none" stroke="#E8EBF4" stroke-width="0.5"/>
    </pattern>
    <radialGradient id="glow" cx="50%" cy="40%" r="60%">
      <stop offset="0%" stop-color="#00897B" stop-opacity="0.25"/>
      <stop offset="100%" stop-color="#0F1F3D" stop-opacity="0"/>
    </radialGradient>
  </defs>
  <rect width="1200" height="630" fill="url(#glow)"/>
  <path d="M100 315 L180 315 L220 220 L260 410 L300 315 L340 270 L380 350 L420 315 L560 315 L600 240 L640 390 L680 280 L720 315 L900 315 L940 250 L980 380 L1020 280 L1060 315 L1100 315" stroke="#00897B" stroke-width="3" stroke-linecap="round" stroke-linejoin="round" fill="none" opacity="0.6"/>
  <circle cx="1098" cy="315" r="8" fill="#00897B" opacity="0.8"/>
  <circle cx="1098" cy="315" r="16" fill="none" stroke="#00897B" stroke-width="2" opacity="0.4"/>
  <rect x="80" y="200" width="52" height="52" rx="14" fill="#0F1F3D" stroke="rgba(0,137,123,0.4)" stroke-width="1.5"/>
  <path d="M88 226 L94 226 L97 218 L100 234 L103 226 L106 221 L109 229 L112 226 L124 226" stroke="#00897B" stroke-width="2.2" stroke-linecap="round" stroke-linejoin="round" fill="none"/>
  <text x="148" y="218" font-family="system-ui,-apple-system,sans-serif" font-weight="800" font-size="42" fill="#FFFFFF" letter-spacing="-1">Smart</text>
  <text x="302" y="218" font-family="system-ui,-apple-system,sans-serif" font-weight="800" font-size="42" fill="#00897B" letter-spacing="-1">Brief</text>
  <text x="148" y="262" font-family="system-ui,-apple-system,sans-serif" font-weight="700" font-size="16" fill="#00897B" letter-spacing="2" opacity="0.9">AI</text>
  <text x="80" y="340" font-family="system-ui,-apple-system,sans-serif" font-weight="800" font-size="52" fill="#FFFFFF" letter-spacing="-2">Your patient's brief is</text>
  <text x="80" y="405" font-family="system-ui,-apple-system,sans-serif" font-weight="800" font-size="52" fill="#00897B" letter-spacing="-2">ready before they walk in.</text>
  <rect x="80" y="450" width="220" height="44" rx="10" fill="#00897B"/>
  <text x="190" y="478" font-family="system-ui,-apple-system,sans-serif" font-weight="700" font-size="16" fill="#FFFFFF" text-anchor="middle">Pre-consultation AI</text>
  <rect x="316" y="450" width="280" height="44" rx="10" fill="rgba(255,255,255,0.08)" stroke="rgba(255,255,255,0.15)" stroke-width="1"/>
  <text x="456" y="478" font-family="system-ui,-apple-system,sans-serif" font-weight="600" font-size="16" fill="rgba(255,255,255,0.7)" text-anchor="middle">Dental · ENT · Gynaecology · General</text>
  <text x="1120" y="600" font-family="system-ui,-apple-system,sans-serif" font-size="14" fill="rgba(255,255,255,0.3)" text-anchor="end">www.smartbriefai.in</text>
</svg>
